<?xml version="1.0" standalone="no"?>
<!DOCTYPE svg PUBLIC "-//W3C//DTD SVG 20010904//EN"
 "http://www.w3.org/TR/2001/REC-SVG-20010904/DTD/svg10.dtd">
<svg version="1.0" xmlns="http://www.w3.org/2000/svg"
 width="1280.000000pt" height="1280.000000pt" viewBox="0 0 1280.000000 1280.000000"
 preserveAspectRatio="xMidYMid meet">
<metadata>
Created by potrace 1.14, written by Peter Selinger 2001-2017
</metadata>
<g transform="translate(0.000000,1280.000000) scale(0.100000,-0.100000)"
fill="#000000" stroke="none">
<path d="M7628 12345 c-2 -1 -59 -5 -128 -8 -69 -4 -136 -8 -150 -11 -14 -2
-53 -7 -86 -10 -34 -4 -137 -27 -230 -52 -93 -25 -174 -47 -180 -48 -7 -1 -18
-7 -25 -12 -8 -6 -88 -36 -179 -68 -152 -53 -376 -157 -510 -236 -218 -129
-442 -315 -615 -515 -33 -37 -71 -81 -85 -95 -14 -15 -53 -61 -86 -101 -34
-41 -70 -84 -81 -96 -17 -19 -57 -34 -123 -47 -14 -2 -65 -14 -115 -26 -49
-12 -94 -23 -100 -24 -15 -4 -127 -28 -145 -31 -8 -2 -15 -4 -15 -5 0 -3 -49
-12 -70 -14 -11 0 -22 -4 -25 -8 -3 -3 -18 -8 -35 -11 -36 -6 -404 -96 -425
-104 -8 -3 -24 -8 -34 -10 -11 -2 -26 -9 -35 -16 -9 -7 -12 -8 -8 -1 7 12 -44
-2 -72 -20 -10 -6 -12 -5 -7 2 4 7 -6 6 -27 -3 -19 -8 -45 -16 -58 -19 -13 -3
-52 -14 -86 -24 -34 -11 -64 -17 -67 -14 -3 3 -6 1 -6 -5 0 -6 -16 -14 -36
-18 -20 -3 -44 -10 -53 -15 -9 -5 -44 -18 -79 -30 -34 -11 -102 -35 -150 -54
-48 -19 -97 -37 -109 -41 -13 -3 -23 -11 -23 -17 0 -5 -7 -8 -15 -4 -8 3 -15
0 -15 -6 0 -6 -3 -8 -6 -5 -4 4 -19 0 -33 -7 -14 -8 -71 -32 -125 -54 l-99
-40 -46 35 c-52 39 -329 222 -437 287 -131 80 -107 82 -370 -24 -225 -91 -486
-216 -634 -304 -41 -24 -99 -57 -127 -71 l-53 -27 -1 -227 c-4 -753 -1 -1008
16 -1216 7 -80 8 -135 4 -139 -2 -2 -54 -24 -115 -49 -60 -25 -141 -60 -180
-77 -38 -18 -94 -44 -124 -57 -280 -128 -791 -415 -805 -453 -10 -24 -3 -414
9 -510 3 -25 8 -72 11 -105 6 -62 13 -122 20 -165 2 -14 7 -47 10 -75 3 -27 8
-63 11 -78 3 -16 7 -38 9 -50 12 -86 27 -134 47 -149 13 -9 25 -15 28 -13 3 2
15 -4 28 -13 l22 -17 -19 -60 c-25 -79 -67 -280 -76 -360 -1 -16 -8 -75 -14
-130 -13 -110 -5 -485 10 -485 3 0 6 -15 7 -32 1 -47 10 -143 12 -143 2 0 4
-9 5 -20 6 -45 15 -102 21 -135 3 -19 6 -43 6 -52 -1 -10 2 -18 6 -18 4 0 7
-12 6 -27 0 -16 3 -44 9 -63 9 -33 13 -55 21 -110 2 -14 5 -27 7 -30 1 -3 3
-9 4 -15 10 -61 28 -133 35 -147 6 -10 10 -31 10 -46 0 -16 3 -32 7 -36 4 -4
9 -19 11 -33 2 -15 7 -34 13 -44 5 -10 9 -29 9 -43 0 -14 5 -26 12 -26 6 0 9
-3 5 -6 -3 -3 2 -29 10 -57 9 -29 16 -58 16 -64 0 -7 5 -13 10 -13 5 0 7 -6 4
-14 -3 -7 0 -19 6 -25 6 -6 7 -11 2 -11 -6 0 -5 -4 2 -8 6 -4 14 -19 16 -32 2
-14 7 -33 11 -42 4 -9 9 -22 10 -30 1 -7 8 -24 16 -38 7 -14 13 -26 12 -27 -1
-2 1 -11 4 -20 13 -41 27 -79 34 -98 28 -69 42 -103 55 -128 8 -15 10 -25 4
-21 -6 3 -3 -5 6 -20 10 -14 13 -26 9 -26 -5 0 -4 -4 1 -8 9 -6 35 -55 41 -74
1 -5 3 -11 4 -15 1 -5 2 -11 1 -16 0 -4 4 -7 10 -7 5 0 7 -5 4 -10 -3 -5 -1
-10 4 -10 6 0 10 -3 9 -7 -4 -12 152 -327 163 -331 5 -2 9 -9 9 -16 0 -18 24
-66 33 -66 5 0 5 -4 2 -10 -3 -5 -1 -10 4 -10 6 0 11 -7 11 -15 0 -8 5 -15 11
-15 5 0 8 -4 4 -9 -3 -5 -1 -12 4 -16 5 -3 16 -18 24 -33 21 -43 41 -75 54
-90 7 -7 16 -24 19 -38 3 -13 9 -24 13 -24 4 0 13 -11 19 -25 7 -14 17 -31 22
-38 6 -7 34 -48 62 -92 29 -44 56 -82 60 -83 5 -2 8 -10 8 -18 0 -8 5 -14 10
-14 6 0 10 -5 10 -11 0 -6 23 -40 50 -75 28 -35 50 -68 50 -73 0 -5 4 -11 8
-13 5 -1 32 -34 61 -73 30 -38 57 -72 62 -73 5 -2 9 -10 9 -17 0 -8 8 -20 18
-27 9 -7 30 -30 45 -51 16 -20 39 -48 53 -62 13 -13 24 -26 24 -29 0 -3 27
-34 60 -68 33 -34 60 -64 60 -67 0 -3 19 -25 43 -47 23 -23 67 -68 98 -100
101 -105 286 -278 395 -369 27 -22 59 -50 71 -62 13 -12 23 -20 23 -17 0 3 12
-7 27 -21 99 -93 589 -436 715 -501 18 -9 35 -20 38 -23 4 -5 26 -17 115 -65
11 -6 22 -13 25 -16 3 -3 39 -22 80 -44 222 -114 347 -174 499 -237 53 -23
110 -46 126 -53 17 -7 46 -19 65 -26 19 -7 49 -18 65 -25 49 -21 392 -134 474
-156 159 -43 293 -78 331 -85 14 -2 36 -7 50 -10 14 -3 36 -8 50 -10 14 -3 41
-9 60 -14 19 -5 51 -12 70 -14 19 -3 46 -7 60 -10 52 -10 207 -35 255 -41 28
-3 84 -10 125 -15 41 -5 104 -12 140 -15 36 -3 85 -7 110 -10 198 -20 775 -20
948 0 20 3 69 7 107 10 39 3 87 7 108 10 20 3 54 7 75 10 20 3 55 7 77 9 22 2
68 9 102 15 34 7 79 14 100 17 21 2 49 6 63 8 22 4 253 52 290 61 8 2 47 10
85 19 180 42 633 182 646 199 3 5 8 8 10 7 6 -2 62 12 74 19 6 3 12 6 15 7 3
0 14 4 25 9 95 38 197 80 230 93 22 9 42 19 45 22 3 3 12 6 20 8 22 5 394 188
440 217 22 14 44 25 50 25 6 0 16 5 23 10 7 6 66 42 132 81 204 121 545 352
545 370 0 5 4 8 8 7 7 -3 50 26 85 57 7 6 32 26 57 45 25 19 54 42 65 52 44
39 82 71 113 95 18 14 49 41 69 59 20 19 41 34 46 34 4 0 5 5 2 10 -3 6 -2 10
3 10 5 0 49 38 98 85 49 47 92 85 97 85 4 0 7 4 7 8 0 4 47 56 106 115 58 59
103 107 101 107 -3 0 14 19 37 43 22 24 57 63 76 87 19 23 45 52 58 63 12 11
22 27 22 34 0 7 4 13 8 13 4 0 35 34 67 76 33 42 66 83 73 90 6 7 12 15 12 19
0 3 5 11 10 18 40 47 54 65 68 90 9 15 20 27 24 27 4 0 8 7 8 15 0 8 5 15 10
15 6 0 10 6 10 13 0 7 9 20 20 30 12 10 18 21 15 26 -2 5 2 12 10 15 9 3 20
16 25 28 10 22 48 79 70 105 5 7 10 15 10 18 0 9 54 90 63 93 4 2 7 8 7 13 0
5 20 42 44 82 24 39 51 88 61 107 10 19 22 38 27 41 5 3 10 10 10 15 1 13 11
38 17 44 10 9 44 78 41 86 -1 4 3 10 8 13 11 7 172 341 172 356 0 3 11 28 23
57 24 54 51 119 53 128 0 3 8 21 17 41 8 19 19 48 23 65 4 16 10 34 14 39 4 6
11 25 15 42 3 18 11 33 16 33 5 0 8 3 7 8 -4 11 24 105 34 119 6 7 7 17 3 23
-3 5 -1 10 4 10 6 0 10 3 9 8 -1 4 6 34 16 67 11 33 20 67 20 75 1 9 4 20 8
25 5 10 21 62 23 80 4 28 19 71 28 83 5 7 7 15 4 18 -3 3 1 28 9 56 9 27 13
56 10 64 -3 8 -2 14 3 14 4 0 8 6 9 13 0 6 3 23 6 37 4 14 8 36 11 50 9 46 15
75 20 100 3 14 8 45 11 69 2 24 7 48 11 54 3 5 7 26 8 46 2 20 5 50 8 66 14
76 21 133 32 250 2 22 4 40 5 40 1 0 3 23 5 50 1 28 4 50 5 50 3 0 13 221 14
332 0 62 4 113 8 113 4 0 3 14 -2 30 -5 19 -5 30 1 30 6 0 7 5 3 12 -12 18
-11 58 1 58 6 0 7 3 0 8 -5 4 -11 48 -11 97 -2 102 -19 370 -24 370 -1 0 -3
23 -5 50 -1 28 -3 50 -4 50 -4 0 -13 87 -15 132 0 24 -3 43 -6 43 -6 0 -11 45
-13 98 -1 12 -5 22 -9 22 -4 0 -6 13 -4 30 2 16 0 30 -3 30 -4 0 -8 10 -8 23
-4 49 -8 77 -13 77 -3 0 -6 8 -7 18 -3 47 -8 72 -16 72 -5 0 -4 7 3 15 9 10 9
15 1 15 -6 0 -10 3 -10 8 1 4 1 9 -1 12 -1 3 -3 15 -6 28 -2 12 -6 32 -8 45
-3 12 -5 22 -6 22 -1 0 -4 16 -7 35 -2 19 -9 37 -14 38 -5 2 -7 7 -5 11 3 4
-2 32 -10 62 -15 55 -22 82 -29 109 -2 8 -4 17 -5 20 -1 3 -2 9 -1 14 1 4 -2
13 -7 20 -5 6 -15 34 -22 61 -7 28 -17 56 -23 63 -5 6 -7 12 -4 12 3 0 -5 29
-18 65 -13 36 -23 68 -23 71 0 4 -13 41 -32 89 -40 100 -50 130 -50 141 0 8
-5 14 -11 14 -5 0 -8 4 -4 9 3 5 1 12 -5 16 -6 4 -8 10 -5 15 3 5 1 11 -5 15
-5 3 -10 15 -10 26 0 10 -5 19 -10 19 -7 0 -10 93 -9 268 2 314 7 295 -117
475 -131 191 -243 324 -441 524 l-91 93 -47 -20 c-26 -11 -48 -20 -50 -20 -3
0 -65 77 -118 145 -25 33 -127 152 -154 181 -13 13 -23 25 -23 27 0 7 -145
160 -266 281 -111 111 -189 184 -280 263 -27 23 -60 52 -74 64 -14 11 -45 38
-70 58 -25 20 -58 48 -75 63 -16 16 -33 28 -37 28 -4 0 -13 6 -20 13 -7 7 -40
33 -73 57 -33 25 -62 47 -65 50 -3 4 -34 26 -70 51 -36 24 -67 46 -70 49 -23
23 -385 250 -399 250 -6 0 -11 5 -11 10 0 6 -5 10 -11 10 -6 0 -24 9 -40 21
-16 11 -29 17 -29 13 0 -4 -8 0 -18 9 -18 16 -338 180 -452 231 -36 16 -101
46 -145 67 -112 52 -448 163 -560 185 -38 7 -60 13 -125 29 -36 9 -101 23
-145 30 -44 7 -96 16 -115 20 -83 15 -304 37 -312 30z"/>
</g>
</svg>
